<?xml version="1.0" encoding="utf-8"?>
<!-- Generator: Adobe Illustrator 25.2.1, SVG Export Plug-In . SVG Version: 6.00 Build 0)  -->
<svg version="1.0" id="Ebene_1" xmlns="http://www.w3.org/2000/svg" xmlns:xlink="http://www.w3.org/1999/xlink" x="0px" y="0px"
	 viewBox="0 0 32 32" enable-background="new 0 0 32 32" xml:space="preserve">
<g>
	<g>
		<g>
			<g>
				<path id="SVGID_5_" fill="#012B4F" d="M0,32V10.8C0,5,4.7,0,10.4,0H32v21.3C32,27.1,27.7,32,21.9,32H0z"/>
			</g>
		</g>
	</g>
	<g>
		<image overflow="visible" width="86" height="67" xlink:href="EE9E7117.png"  transform="matrix(0.24 0 0 0.24 5.6362 8.5962)">
		</image>
		<g>
			<g>
				<path fill="#FFFFFF" d="M7.2,17.4h8.2c0.3,0,0.6-0.3,0.6-0.6v-6.7c0-0.3-0.3-0.6-0.6-0.6H7.2c-0.3,0-0.6,0.3-0.6,0.6v6.7
					C6.6,17.1,6.8,17.4,7.2,17.4z M8.1,11.1h6.2v4.7H8.1V11.1z"/>
				<path fill="#FFFFFF" d="M23.6,19h-3.4H18H7.2c-0.3,0-0.6,0.3-0.6,0.6v0.4c0,0.3,0.3,0.6,0.6,0.6H18h2.2h3.4
					c0.3,0,0.6-0.3,0.6-0.6v-0.4C24.2,19.2,23.9,19,23.6,19z"/>
				<path fill="#FFFFFF" d="M21.1,22.1h-0.9H18H7.2c-0.3,0-0.6,0.3-0.6,0.6v0.4c0,0.3,0.3,0.6,0.6,0.6H18h2.2h0.9
					c0.3,0,0.6-0.3,0.6-0.6v-0.4C21.7,22.3,21.5,22.1,21.1,22.1z"/>
				<path fill="#FFFFFF" d="M24.6,15.9H18c-0.3,0-0.6,0.3-0.6,0.6v0.4c0,0.3,0.3,0.6,0.6,0.6h6.6c0.3,0,0.6-0.3,0.6-0.6v-0.4
					C25.2,16.1,25,15.9,24.6,15.9z"/>
				<path fill="#FFFFFF" d="M22.9,12.7H18c-0.3,0-0.6,0.3-0.6,0.6v0.4c0,0.3,0.3,0.6,0.6,0.6h4.9c0.3,0,0.6-0.3,0.6-0.6v-0.4
					C23.5,13,23.2,12.7,22.9,12.7z"/>
				<path fill="#FFFFFF" d="M24.6,9.6H18c-0.3,0-0.6,0.3-0.6,0.6v0.4c0,0.3,0.3,0.6,0.6,0.6h6.6c0.3,0,0.6-0.3,0.6-0.6v-0.4
					C25.2,9.9,25,9.6,24.6,9.6z"/>
			</g>
		</g>
	</g>
	<g opacity="0.36">
		<image overflow="visible" width="382" height="329" xlink:href="EE9E7115.png"  transform="matrix(0.24 0 0 0.24 -30.48 -18.16)">
		</image>
	</g>
	<g>
		<image overflow="visible" width="129" height="110" xlink:href="EE9E711B.png"  transform="matrix(0.24 0 0 0.24 0.48 3.44)">
		</image>
		<g>
			<g>
				<path fill="#FFFFFF" d="M7.2,17.4h8.2c0.3,0,0.6-0.3,0.6-0.6v-6.7c0-0.3-0.3-0.6-0.6-0.6H7.2c-0.3,0-0.6,0.3-0.6,0.6v6.7
					C6.6,17.1,6.8,17.4,7.2,17.4z M8.1,11.1h6.2v4.7H8.1V11.1z"/>
				<path fill="#FFFFFF" d="M23.6,19h-3.4H18H7.2c-0.3,0-0.6,0.3-0.6,0.6v0.4c0,0.3,0.3,0.6,0.6,0.6H18h2.2h3.4
					c0.3,0,0.6-0.3,0.6-0.6v-0.4C24.2,19.2,23.9,19,23.6,19z"/>
				<path fill="#FFFFFF" d="M21.1,22.1h-0.9H18H7.2c-0.3,0-0.6,0.3-0.6,0.6v0.4c0,0.3,0.3,0.6,0.6,0.6H18h2.2h0.9
					c0.3,0,0.6-0.3,0.6-0.6v-0.4C21.7,22.3,21.5,22.1,21.1,22.1z"/>
				<path fill="#FFFFFF" d="M24.6,15.9H18c-0.3,0-0.6,0.3-0.6,0.6v0.4c0,0.3,0.3,0.6,0.6,0.6h6.6c0.3,0,0.6-0.3,0.6-0.6v-0.4
					C25.2,16.1,25,15.9,24.6,15.9z"/>
				<path fill="#FFFFFF" d="M22.9,12.7H18c-0.3,0-0.6,0.3-0.6,0.6v0.4c0,0.3,0.3,0.6,0.6,0.6h4.9c0.3,0,0.6-0.3,0.6-0.6v-0.4
					C23.5,13,23.2,12.7,22.9,12.7z"/>
				<path fill="#FFFFFF" d="M24.6,9.6H18c-0.3,0-0.6,0.3-0.6,0.6v0.4c0,0.3,0.3,0.6,0.6,0.6h6.6c0.3,0,0.6-0.3,0.6-0.6v-0.4
					C25.2,9.9,25,9.6,24.6,9.6z"/>
			</g>
		</g>
	</g>
</g>
</svg>
