<?xml version="1.0" encoding="utf-8"?>
<!-- Generator: Adobe Illustrator 25.2.3, SVG Export Plug-In . SVG Version: 6.00 Build 0)  -->
<svg version="1.1" id="Ebene_1" xmlns="http://www.w3.org/2000/svg" xmlns:xlink="http://www.w3.org/1999/xlink" x="0px" y="0px"
	 viewBox="0 0 32 32" style="enable-background:new 0 0 32 32;" xml:space="preserve">
<style type="text/css">
	.st0{fill:#02599B;}
	.st1{fill:#FFFFFF;}
	.st2{opacity:0.36;}
</style>
<g>
	<g>
		<g>
			<g>
				<path id="SVGID_5_" class="st0" d="M0,32V10.8C0,5,4.7,0,10.4,0H32v21.3C32,27.1,27.7,32,21.9,32H0z"/>
			</g>
		</g>
	</g>
	<g>
		
			<image style="overflow:visible;enable-background:new    ;" width="92" height="71" xlink:href="EE9E7114.png"  transform="matrix(0.2251 0 0 0.2251 5.5995 8.6435)">
		</image>
		<g>
			<g>
				<path class="st1" d="M7.2,17.4h8.2c0.3,0,0.6-0.3,0.6-0.6v-6.7c0-0.3-0.3-0.6-0.6-0.6H7.2c-0.3,0-0.6,0.3-0.6,0.6v6.7
					C6.6,17.1,6.8,17.4,7.2,17.4z M8.1,11.1h6.2v4.7H8.1V11.1z"/>
				<path class="st1" d="M23.6,19h-3.4H18H7.2c-0.3,0-0.6,0.3-0.6,0.6V20c0,0.3,0.3,0.6,0.6,0.6H18h2.2h3.4c0.3,0,0.6-0.3,0.6-0.6
					v-0.4C24.2,19.2,23.9,19,23.6,19z"/>
				<path class="st1" d="M21.1,22.1h-0.9H18H7.2c-0.3,0-0.6,0.3-0.6,0.6v0.4c0,0.3,0.3,0.6,0.6,0.6H18h2.2h0.9
					c0.3,0,0.6-0.3,0.6-0.6v-0.4C21.7,22.3,21.5,22.1,21.1,22.1z"/>
				<path class="st1" d="M24.6,15.9H18c-0.3,0-0.6,0.3-0.6,0.6v0.4c0,0.3,0.3,0.6,0.6,0.6h6.6c0.3,0,0.6-0.3,0.6-0.6v-0.4
					C25.2,16.1,25,15.9,24.6,15.9z"/>
				<path class="st1" d="M22.9,12.7H18c-0.3,0-0.6,0.3-0.6,0.6v0.4c0,0.3,0.3,0.6,0.6,0.6h4.9c0.3,0,0.6-0.3,0.6-0.6v-0.4
					C23.5,13,23.2,12.7,22.9,12.7z"/>
				<path class="st1" d="M24.6,9.6H18c-0.3,0-0.6,0.3-0.6,0.6v0.4c0,0.3,0.3,0.6,0.6,0.6h6.6c0.3,0,0.6-0.3,0.6-0.6v-0.4
					C25.2,9.9,25,9.6,24.6,9.6z"/>
			</g>
		</g>
	</g>
	<g class="st2">
		
			<image style="overflow:visible;enable-background:new    ;" width="388" height="333" xlink:href="EE9E7113.png"  transform="matrix(0.2366 0 0 0.2366 -30.5482 -18.0806)">
		</image>
	</g>
	<g>
		
			<image style="overflow:visible;enable-background:new    ;" width="183" height="163" xlink:href="EE9E711C.png"  transform="matrix(0.2351 0 0 0.2351 -5.5536 -2.5224)">
		</image>
		<g>
			<g>
				<path class="st1" d="M7.2,17.4h8.2c0.3,0,0.6-0.3,0.6-0.6v-6.7c0-0.3-0.3-0.6-0.6-0.6H7.2c-0.3,0-0.6,0.3-0.6,0.6v6.7
					C6.6,17.1,6.8,17.4,7.2,17.4z M8.1,11.1h6.2v4.7H8.1V11.1z"/>
				<path class="st1" d="M23.6,19h-3.4H18H7.2c-0.3,0-0.6,0.3-0.6,0.6V20c0,0.3,0.3,0.6,0.6,0.6H18h2.2h3.4c0.3,0,0.6-0.3,0.6-0.6
					v-0.4C24.2,19.2,23.9,19,23.6,19z"/>
				<path class="st1" d="M21.1,22.1h-0.9H18H7.2c-0.3,0-0.6,0.3-0.6,0.6v0.4c0,0.3,0.3,0.6,0.6,0.6H18h2.2h0.9
					c0.3,0,0.6-0.3,0.6-0.6v-0.4C21.7,22.3,21.5,22.1,21.1,22.1z"/>
				<path class="st1" d="M24.6,15.9H18c-0.3,0-0.6,0.3-0.6,0.6v0.4c0,0.3,0.3,0.6,0.6,0.6h6.6c0.3,0,0.6-0.3,0.6-0.6v-0.4
					C25.2,16.1,25,15.9,24.6,15.9z"/>
				<path class="st1" d="M22.9,12.7H18c-0.3,0-0.6,0.3-0.6,0.6v0.4c0,0.3,0.3,0.6,0.6,0.6h4.9c0.3,0,0.6-0.3,0.6-0.6v-0.4
					C23.5,13,23.2,12.7,22.9,12.7z"/>
				<path class="st1" d="M24.6,9.6H18c-0.3,0-0.6,0.3-0.6,0.6v0.4c0,0.3,0.3,0.6,0.6,0.6h6.6c0.3,0,0.6-0.3,0.6-0.6v-0.4
					C25.2,9.9,25,9.6,24.6,9.6z"/>
			</g>
		</g>
	</g>
</g>
</svg>
