<?xml version="1.0" encoding="utf-8"?>
<!-- Generator: Adobe Illustrator 25.2.3, SVG Export Plug-In . SVG Version: 6.00 Build 0)  -->
<svg version="1.1" id="Ebene_1" xmlns="http://www.w3.org/2000/svg" xmlns:xlink="http://www.w3.org/1999/xlink" x="0px" y="0px"
	 viewBox="0 0 32 32" style="enable-background:new 0 0 32 32;" xml:space="preserve">
<style type="text/css">
	.st0{fill:#02599B;}
	.st1{opacity:0.51;}
	.st2{fill:#FFFFFF;}
</style>
<g>
	<g>
		<g>
			<path id="SVGID_45_" class="st0" d="M0,32V10.8C0,5,4.7,0,10.4,0H32v21.3C32,27.1,27.7,32,21.9,32H0z"/>
		</g>
	</g>
</g>
<g class="st1">
	
		<image style="overflow:visible;opacity:0.4;enable-background:new    ;" width="75" height="92" xlink:href="2DA1C27F.png"  transform="matrix(0.2327 0 0 0.2327 3.0321 7.5338)">
	</image>
	
		<image style="overflow:visible;enable-background:new    ;" width="333" height="350" xlink:href="2DA1C27D.png"  transform="matrix(0.2365 0 0 0.2365 -27.4925 -23.1425)">
	</image>
</g>
<g>
	
		<image style="overflow:visible;enable-background:new    ;" width="163" height="163" xlink:href="2DA1C283.png"  transform="matrix(0.2319 0 0 0.2319 -3.3009 -2.4609)">
	</image>
	<g>
		<path class="st2" d="M15.1,13.2L10.5,23c-0.1,0.3-0.5,0.4-0.8,0.3l-0.4-0.2C9.1,23,9,22.7,9.1,22.4l4.6-9.9l0.9-2L15,9.7
			c0.1-0.3,0.4-0.3,0.7-0.3s0.6,0,0.7,0.3l0.4,0.8l0.9,2l1.9,4.1h-1.7l-1.6-3.5l-0.6-1.2L15.1,13.2z M22.1,22.4l-1.9-4.2h-5.7
			c-0.3,0-0.6,0.3-0.6,0.6v0.4c0,0.3,0.3,0.6,0.6,0.6h4.7l1.5,3.3c0.1,0.3,0.5,0.4,0.8,0.3l0.4-0.2C22.1,23,22.3,22.7,22.1,22.4z"/>
	</g>
</g>
</svg>
