<?xml version="1.0" encoding="UTF-8"?>
<svg id="Layer_1" xmlns="http://www.w3.org/2000/svg" baseProfile="tiny" version="1.2" viewBox="0 0 24 24">
  <!-- Generator: Adobe Illustrator 29.6.0, SVG Export Plug-In . SVG Version: 2.1.1 Build 207)  -->
  <path d="M11,8.3l-4.9,10.3c-.1.3-.5.4-.8.3l-.4-.2c-.2-.1-.3-.4-.2-.7l4.9-10.5.9-2.1.4-.8c.1-.3.4-.3.7-.3s.6,0,.7.3l.4.8.9,2.1,2,4.3h-1.8l-1.7-3.7-.6-1.3-.6,1.4ZM18.4,18l-2-4.4h-6c-.3,0-.6.3-.6.6v.4c0,.3.3.6.6.6h5l1.6,3.5c.1.3.5.4.8.3l.4-.2c.2-.2.4-.5.2-.8h0Z" fill="#fff"/>
</svg>