<?xml version="1.0" encoding="UTF-8"?>
<svg id="Layer_1" xmlns="http://www.w3.org/2000/svg" baseProfile="tiny" version="1.2" viewBox="0 0 24 24">
  <!-- Generator: Adobe Illustrator 29.6.0, SVG Export Plug-In . SVG Version: 2.1.1 Build 207)  -->
  <path d="M2.9,12.6h8.7c.3,0,.6-.3.6-.6v-7.1c0-.3-.3-.6-.6-.6H2.9c-.3,0-.6.3-.6.6v7.1c0,.3.2.6.6.6ZM3.8,6h6.6v5H3.8v-5Z" fill="#fff"/>
  <path d="M20.2,14.3H2.9c-.3,0-.6.3-.6.6v.4c0,.3.3.6.6.6h17.3c.3,0,.6-.3.6-.6v-.4c0-.4-.3-.6-.6-.6h0Z" fill="#fff"/>
  <path d="M17.5,17.6H2.9c-.3,0-.6.3-.6.6v.4c0,.3.3.6.6.6h14.7c.3,0,.6-.3.6-.6v-.4c0-.4-.2-.6-.6-.6Z" fill="#fff"/>
  <path d="M21.2,11.1h-7c-.3,0-.6.3-.6.6v.4c0,.3.3.6.6.6h7c.3,0,.6-.3.6-.6v-.4c0-.4-.2-.6-.6-.6Z" fill="#fff"/>
  <path d="M19.4,7.7h-5.2c-.3,0-.6.3-.6.6v.4c0,.3.3.6.6.6h5.2c.3,0,.6-.3.6-.6v-.4c0-.3-.3-.6-.6-.6Z" fill="#fff"/>
  <path d="M21.2,4.4h-7c-.3,0-.6.3-.6.6v.4c0,.3.3.6.6.6h7c.3,0,.6-.3.6-.6v-.4c0-.3-.2-.6-.6-.6Z" fill="#fff"/>
</svg>