<?xml version="1.0" encoding="utf-8"?>
<!-- Generator: Adobe Illustrator 25.2.1, SVG Export Plug-In . SVG Version: 6.00 Build 0)  -->
<svg version="1.0" id="Ebene_1" xmlns="http://www.w3.org/2000/svg" xmlns:xlink="http://www.w3.org/1999/xlink" x="0px" y="0px"
	 viewBox="0 0 32 32" enable-background="new 0 0 32 32" xml:space="preserve">
<g>
	<g>
		<g>
			<path id="SVGID_45_" fill="#012B4F" d="M0,32V10.8C0,5,4.7,0,10.4,0H32v21.3C32,27.1,27.7,32,21.9,32H0z"/>
		</g>
	</g>
</g>
<g>
	
		<image overflow="visible" enable-background="new    " width="79" height="79" xlink:href="FC55F81F.png"  transform="matrix(0.2233 0 0 0.2233 6.7782 7.6182)">
	</image>
	<g>
		<path fill="#FFFFFF" d="M15.1,13.2L10.5,23c-0.1,0.3-0.5,0.4-0.8,0.3l-0.4-0.2C9.1,23,9,22.7,9.1,22.4l4.6-9.9l0.9-2L15,9.7
			c0.1-0.3,0.4-0.4,0.7-0.3c0.3-0.1,0.5,0.1,0.7,0.3l0.4,0.8l0.9,2l1.9,4.1h-1.7l-1.6-3.5L15.6,12L15.1,13.2z M22.1,22.4l-1.9-4.2
			h-5.7c-0.3,0-0.6,0.3-0.6,0.6v0.4c0,0.3,0.3,0.6,0.6,0.6h4.7l1.5,3.3c0.1,0.3,0.5,0.4,0.8,0.3l0.4-0.2
			C22.1,23,22.3,22.7,22.1,22.4z"/>
	</g>
</g>
<g opacity="0.51">
	
		<image overflow="visible" opacity="0.4" enable-background="new    " width="75" height="92" xlink:href="FC55F81D.png"  transform="matrix(0.2327 0 0 0.2327 3.0321 7.5338)">
	</image>
	
		<image overflow="visible" enable-background="new    " width="333" height="350" xlink:href="FC55F823.png"  transform="matrix(0.2365 0 0 0.2365 -27.4925 -23.1425)">
	</image>
</g>
<image overflow="visible" opacity="0.4" enable-background="new    " width="113" height="113" xlink:href="FC55F825.png"  transform="matrix(0.2294 0 0 0.2294 2.6378 3.3578)">
</image>
<g>
	<path fill="#FFFFFF" d="M15.7,12.2l0.5,1l1.7,3.5h1.9l-2-4.2l-0.9-2l-0.4-0.8c-0.2-0.2-0.4-0.4-0.8-0.4c-0.2,0-0.6,0-0.8,0.4
		l-1.3,2.8L9,22.4c-0.1,0.3,0,0.7,0.2,0.8l0.4,0.2c0.1,0,0.2,0,0.3,0c0.1,0,0.3,0,0.4-0.1c0.1-0.1,0.2-0.2,0.3-0.3l4.6-9.8
		L15.7,12.2z"/>
	<path fill="#FFFFFF" d="M22.2,22.4l-1.9-4.3h-5.8c-0.4,0-0.7,0.3-0.7,0.7v0.4c0,0.4,0.3,0.7,0.7,0.7h4.6l1.5,3.2
		c0.1,0.2,0.2,0.3,0.4,0.4c0.1,0,0.2,0,0.3,0c0.1,0,0.2,0,0.3,0l0.4-0.2l0,0C22.4,22.9,22.3,22.5,22.2,22.4z"/>
</g>
</svg>
