<?xml version="1.0" encoding="utf-8"?>
<!-- Generator: Adobe Illustrator 23.0.3, SVG Export Plug-In . SVG Version: 6.00 Build 0)  -->
<svg version="1.1" id="Layer_1" xmlns="http://www.w3.org/2000/svg" xmlns:xlink="http://www.w3.org/1999/xlink" x="0px" y="0px"
	 viewBox="0 0 24 24" style="enable-background:new 0 0 24 24;" xml:space="preserve">
<path d="M12,6c3.8,0,7.2,2.1,8.8,5.5c-1.6,3.4-5,5.5-8.8,5.5s-7.2-2.1-8.8-5.5C4.8,8.1,8.2,6,12,6 M12,4C7,4,2.7,7.1,1,11.5
	C2.7,15.9,7,19,12,19s9.3-3.1,11-7.5C21.3,7.1,17,4,12,4z M12,9c1.4,0,2.5,1.1,2.5,2.5S13.4,14,12,14s-2.5-1.1-2.5-2.5S10.6,9,12,9
	 M12,7c-2.5,0-4.5,2-4.5,4.5S9.5,16,12,16s4.5-2,4.5-4.5S14.5,7,12,7z"/>
</svg>
