<?xml version="1.0" encoding="utf-8"?>
<!-- Generator: Adobe Illustrator 23.0.3, SVG Export Plug-In . SVG Version: 6.00 Build 0)  -->
<svg version="1.1" id="Layer_1" xmlns="http://www.w3.org/2000/svg" xmlns:xlink="http://www.w3.org/1999/xlink" x="0px" y="0px"
	 viewBox="0 0 24 24" style="enable-background:new 0 0 24 24;" xml:space="preserve">
<path d="M5,2c0-0.5-0.4-1-1-1S3,1.5,3,2v4H1v6h6V6H5V2z M9,16c0,1.3,0.8,2.4,2,2.8V23h2v-4.2c1.2-0.4,2-1.5,2-2.8v-2H9V16z M1,16
	c0,1.3,0.8,2.4,2,2.8V23h2v-4.2c1.2-0.4,2-1.5,2-2.8v-2H1V16z M21,6V2c0-0.5-0.5-1-1-1s-1,0.5-1,1v4h-2v6h6V6H21z M13,2
	c0-0.5-0.4-1-1-1s-1,0.5-1,1v4H9v6h6V6h-2V2z M17,16c0,1.3,0.8,2.4,2,2.8V23h2v-4.2c1.2-0.4,2-1.5,2-2.8v-2h-6V16z"/>
</svg>
