<?xml version="1.0" encoding="utf-8"?>
<!-- Generator: Adobe Illustrator 23.0.3, SVG Export Plug-In . SVG Version: 6.00 Build 0)  -->
<svg version="1.1" id="Layer_1" xmlns="http://www.w3.org/2000/svg" xmlns:xlink="http://www.w3.org/1999/xlink" x="0px" y="0px"
	 viewBox="0 0 24 24" style="enable-background:new 0 0 24 24;" xml:space="preserve">
<path d="M11,6c1.4,0,2.6,0.6,3.5,1.5L12,10h6V4l-2.1,2.1C14.7,4.8,12.9,4,11,4c-3.5,0-6.4,2.6-6.9,6h2C6.6,7.7,8.6,6,11,6z
	 M16.6,15.1c0.7-0.9,1.1-2,1.3-3.1h-2c-0.5,2.3-2.5,4-4.9,4c-1.4,0-2.6-0.6-3.5-1.5L10,12H4v6l2.1-2.1c1.3,1.3,3,2.1,4.9,2.1
	c1.6,0,3-0.5,4.1-1.4l4.9,4.9l1.5-1.5C21.5,20,16.6,15.1,16.6,15.1z"/>
</svg>
