<?xml version="1.0" encoding="utf-8"?>
<!-- Generator: Adobe Illustrator 23.0.3, SVG Export Plug-In . SVG Version: 6.00 Build 0)  -->
<svg version="1.1" id="Layer_1" xmlns="http://www.w3.org/2000/svg" xmlns:xlink="http://www.w3.org/1999/xlink" x="0px" y="0px"
	 viewBox="0 0 24 24" style="enable-background:new 0 0 24 24;" xml:space="preserve">
<path d="M16.7,4.5l2.8,2.8l-2.8,2.8l-2.8-2.8L16.7,4.5 M9,5v4H5V5H9 M19,15v4h-4v-4H19 M9,15v4H5v-4H9 M16.7,1.7L11,7.3l5.7,5.7
	l5.7-5.7C22.3,7.3,16.7,1.7,16.7,1.7z M11,3H3v8h8V3z M21,13h-8v8h8V13z M11,13H3v8h8V13z"/>
</svg>
