<?xml version="1.0" encoding="utf-8"?>
<!-- Generator: Adobe Illustrator 25.2.1, SVG Export Plug-In . SVG Version: 6.00 Build 0)  -->
<svg version="1.1" id="Ebene_1" xmlns="http://www.w3.org/2000/svg" xmlns:xlink="http://www.w3.org/1999/xlink" x="0px" y="0px"
	 viewBox="0 0 24 24" style="enable-background:new 0 0 24 24;" xml:space="preserve">
<path d="M20.4,8.6l-1.2,1.9c1.2,2.4,1.1,5.3-0.2,7.6H5.1C2.9,14.2,4.2,9.3,8,7.1c2.3-1.3,5.2-1.4,7.6-0.2l1.9-1.2
	c-4.6-3-10.8-1.6-13.8,3c-2,3.1-2.1,7.1-0.3,10.4c0.4,0.6,1,1,1.7,1h13.9c0.7,0,1.4-0.4,1.7-1C22.5,15.7,22.4,11.7,20.4,8.6
	L20.4,8.6z M10.6,15.4c0.8,0.8,2,0.8,2.8,0c0,0,0,0,0,0l5.7-8.5l-8.5,5.7C9.8,13.4,9.8,14.6,10.6,15.4
	C10.6,15.4,10.6,15.4,10.6,15.4z"/>
</svg>
