<?xml version="1.0" encoding="utf-8"?>
<!-- Generator: Adobe Illustrator 23.0.3, SVG Export Plug-In . SVG Version: 6.00 Build 0)  -->
<svg version="1.1" id="Layer_1" xmlns="http://www.w3.org/2000/svg" xmlns:xlink="http://www.w3.org/1999/xlink" x="0px" y="0px"
	 viewBox="0 0 24 24" style="enable-background:new 0 0 24 24;" xml:space="preserve">
<path d="M21.4,11.6l-9-9C12.1,2.2,11.6,2,11,2H4C2.9,2,2,2.9,2,4v7c0,0.6,0.2,1.1,0.6,1.4l9,9c0.4,0.4,0.9,0.6,1.4,0.6
	s1.1-0.2,1.4-0.6l7-7c0.4-0.4,0.6-0.9,0.6-1.4S21.8,11.9,21.4,11.6z M13,20l-9-9V4h7v0l9,9L13,20z M6.5,5C7.3,5,8,5.7,8,6.5
	S7.3,8,6.5,8S5,7.3,5,6.5S5.7,5,6.5,5z"/>
</svg>
