<svg xmlns="http://www.w3.org/2000/svg" xmlns:xlink="http://www.w3.org/1999/xlink" version="1.1" x="0px" y="0px" viewBox="0 0 100 100" enable-background="new 0 0 100 100" xml:space="preserve"><g><path fill="#000000" d="M17.868,42.541c4.063,0,7.368,3.305,7.368,7.368s-3.305,7.368-7.368,7.368S10.5,53.972,10.5,49.909   S13.805,42.541,17.868,42.541 M17.868,37.041C10.761,37.041,5,42.802,5,49.909c0,7.107,5.761,12.868,12.868,12.868   c7.107,0,12.868-5.761,12.868-12.868C30.737,42.802,24.975,37.041,17.868,37.041L17.868,37.041z"></path></g><g><path fill="#000000" d="M50.136,42.541c4.063,0,7.368,3.305,7.368,7.368s-3.305,7.368-7.368,7.368s-7.368-3.305-7.368-7.368   S46.073,42.541,50.136,42.541 M50.136,37.041c-7.107,0-12.868,5.761-12.868,12.868c0,7.107,5.761,12.868,12.868,12.868   c7.107,0,12.868-5.761,12.868-12.868C63.004,42.802,57.243,37.041,50.136,37.041L50.136,37.041z"></path></g><g><path fill="#000000" d="M82.404,42.541c4.063,0,7.368,3.305,7.368,7.368s-3.305,7.368-7.368,7.368   c-4.063,0-7.368-3.305-7.368-7.368S78.341,42.541,82.404,42.541 M82.404,37.041c-7.107,0-12.868,5.761-12.868,12.868   c0,7.107,5.761,12.868,12.868,12.868c7.107,0,12.868-5.761,12.868-12.868C95.272,42.802,89.511,37.041,82.404,37.041L82.404,37.041   z"></path></g></svg>