<?xml version="1.0" encoding="utf-8"?>
<!-- Generator: Adobe Illustrator 23.0.3, SVG Export Plug-In . SVG Version: 6.00 Build 0)  -->
<svg version="1.1" id="Layer_1" xmlns="http://www.w3.org/2000/svg" xmlns:xlink="http://www.w3.org/1999/xlink" x="0px" y="0px"
	 viewBox="0 0 24 24" style="enable-background:new 0 0 24 24;" xml:space="preserve">
<path d="M7,15h7v2H7V15z M7,11h10v2H7V11z M7,7h10v2H7V7z M19,3h-4.2c-0.4-1.2-1.5-2-2.8-2S9.6,1.8,9.2,3H5C4.9,3,4.7,3,4.6,3
	c-0.4,0.1-0.7,0.3-1,0.5C3.4,3.8,3.3,4,3.2,4.2C3.1,4.5,3,4.7,3,5v14c0,0.3,0.1,0.5,0.2,0.8s0.3,0.5,0.4,0.6c0.3,0.3,0.6,0.5,1,0.5
	c0.1,0,0.3,0,0.4,0h14c1.1,0,2-0.9,2-2V5C21,3.9,20.1,3,19,3z M12,2.8c0.4,0,0.8,0.3,0.8,0.8S12.4,4.3,12,4.3s-0.8-0.3-0.8-0.8
	S11.6,2.8,12,2.8z M19,19H5V5h14V19z"/>
</svg>
